<svg id="Layer_1" data-name="Layer 1" xmlns="http://www.w3.org/2000/svg" viewBox="0 0 1113.99 308.65"><title>logo-primary</title><path d="M434.4,239.61a74,74,0,0,1-25-4.2q-11.81-4.2-18.6-11.2a7.87,7.87,0,0,1-2.3-6.7,8.86,8.86,0,0,1,3.7-6.1,9.8,9.8,0,0,1,7.2-2.4,9,9,0,0,1,6,3.2q4,4.39,11.6,7.6a43.43,43.43,0,0,0,17,3.2q12.6,0,18.9-4.2t6.5-10.6q0-6.41-6.2-10.9T431.4,190q-20.2-3.8-29.4-11.8t-9.2-19.4q0-10.2,5.8-16.9a34.9,34.9,0,0,1,15.1-10,63,63,0,0,1,43,1,40,40,0,0,1,16.1,11.9A8.91,8.91,0,0,1,475,151a7,7,0,0,1-3.4,5.4,8.68,8.68,0,0,1-6.8,1.3,13.08,13.08,0,0,1-6.8-3.3,28.16,28.16,0,0,0-11-7.3,42.39,42.39,0,0,0-14-2.1q-9.6,0-15.8,3.5t-6.2,9.7a12,12,0,0,0,2.1,6.9q2.1,3.1,7.8,5.5t16.7,4.4q15,2.81,23.7,7.5t12.4,10.8a26.34,26.34,0,0,1,3.7,13.9,28.44,28.44,0,0,1-5.1,16.7,34.07,34.07,0,0,1-14.6,11.5Q448.19,239.61,434.4,239.61Z" fill="#c90"/><path d="M509,285.61a8.92,8.92,0,0,1-9.4-9.4V184a57.24,57.24,0,0,1,7.5-28.4,53.47,53.47,0,0,1,19.7-19.8,54.37,54.37,0,0,1,27.8-7.2,55.41,55.41,0,0,1,28.5,7.3,54.25,54.25,0,0,1,19.8,19.8,55.41,55.41,0,0,1,7.3,28.5,58.15,58.15,0,0,1-6.9,28.4,51.89,51.89,0,0,1-18.7,19.8,52.69,52.69,0,0,1-49.2,2.1,48.62,48.62,0,0,1-17-13.9v55.6a8.92,8.92,0,0,1-9.4,9.4Zm45.8-62.6a35.87,35.87,0,0,0,19-5.1,36.94,36.94,0,0,0,13.3-13.9,42.86,42.86,0,0,0,0-39.8,36.94,36.94,0,0,0-13.3-13.9,37.94,37.94,0,0,0-38,0,36.24,36.24,0,0,0-13.2,13.9,43.86,43.86,0,0,0,0,39.9,35.35,35.35,0,0,0,13.2,13.9A36.48,36.48,0,0,0,554.79,223Z" fill="#c90"/><path d="M686,239.61a56.7,56.7,0,0,1-28.5-7.1,51.26,51.26,0,0,1-19.6-19.6q-7.1-12.49-7.1-28.7,0-16.4,7.1-28.9a51.26,51.26,0,0,1,19.6-19.6,56.7,56.7,0,0,1,28.5-7.1q16,0,28.4,7.1a52.17,52.17,0,0,1,19.6,19.6q7.2,12.49,7.2,28.9,0,16.2-7.1,28.7a51.42,51.42,0,0,1-19.5,19.6Q702.19,239.61,686,239.61Zm0-16.6a36.84,36.84,0,0,0,19.2-5,35.69,35.69,0,0,0,13.2-13.7,40.93,40.93,0,0,0,4.8-20.1,41.51,41.51,0,0,0-4.8-20.2,35.48,35.48,0,0,0-13.2-13.8,39.36,39.36,0,0,0-38.4,0,35.48,35.48,0,0,0-13.2,13.8,41.51,41.51,0,0,0-4.8,20.2,40.93,40.93,0,0,0,4.8,20.1,35.69,35.69,0,0,0,13.2,13.7A36.84,36.84,0,0,0,686,223Z" fill="#c90"/><path d="M817.19,239.61a56.7,56.7,0,0,1-28.5-7.1,51.26,51.26,0,0,1-19.6-19.6q-7.1-12.49-7.1-28.7,0-16.4,7.1-28.9a51.26,51.26,0,0,1,19.6-19.6,56.7,56.7,0,0,1,28.5-7.1q16,0,28.4,7.1a52.17,52.17,0,0,1,19.6,19.6q7.2,12.49,7.2,28.9,0,16.2-7.1,28.7a51.42,51.42,0,0,1-19.5,19.6Q833.39,239.61,817.19,239.61Zm0-16.6a36.84,36.84,0,0,0,19.2-5,35.69,35.69,0,0,0,13.2-13.7,40.93,40.93,0,0,0,4.8-20.1,41.51,41.51,0,0,0-4.8-20.2,35.48,35.48,0,0,0-13.2-13.8,39.36,39.36,0,0,0-38.4,0,35.48,35.48,0,0,0-13.2,13.8,41.51,41.51,0,0,0-4.8,20.2,40.93,40.93,0,0,0,4.8,20.1A35.69,35.69,0,0,0,798,218,36.84,36.84,0,0,0,817.19,223Z" fill="#c90"/><path d="M924,238.81a25.57,25.57,0,0,1-15.2-4.7,31.27,31.27,0,0,1-10.3-12.8,44.52,44.52,0,0,1-3.7-18.7V91.81a9.21,9.21,0,1,1,18.4,0v110.8q0,7.8,3,12.8t7.8,5h5a7.58,7.58,0,0,1,6,2.5,9.77,9.77,0,0,1,2.2,6.7,7.9,7.9,0,0,1-3.4,6.7,14.11,14.11,0,0,1-8.6,2.5Z" fill="#c90"/><path d="M965.39,110.61A12.64,12.64,0,0,1,953,98.21a11.7,11.7,0,0,1,3.7-8.9,12.56,12.56,0,0,1,17.4,0,11.7,11.7,0,0,1,3.7,8.9,12.08,12.08,0,0,1-3.6,8.7A11.81,11.81,0,0,1,965.39,110.61Zm0,128.2a8.92,8.92,0,0,1-9.4-9.4v-90.6a9.4,9.4,0,1,1,18.8,0v90.6a8.92,8.92,0,0,1-9.4,9.4Z" fill="#c90"/><path d="M1058.79,239.61a56.7,56.7,0,0,1-28.5-7.1,51.19,51.19,0,0,1-19.6-19.6q-7.11-12.49-7.1-28.7,0-16.4,7.1-28.9a51.19,51.19,0,0,1,19.6-19.6,56.7,56.7,0,0,1,28.5-7.1q16,0,28.4,7.1a52.24,52.24,0,0,1,19.6,19.6q7.2,12.49,7.2,28.9,0,16.2-7.1,28.7a51.56,51.56,0,0,1-19.5,19.6Q1075,239.61,1058.79,239.61Zm0-16.6a36.84,36.84,0,0,0,19.2-5,35.69,35.69,0,0,0,13.2-13.7,40.93,40.93,0,0,0,4.8-20.1,41.51,41.51,0,0,0-4.8-20.2,35.48,35.48,0,0,0-13.2-13.8,39.36,39.36,0,0,0-38.4,0,35.48,35.48,0,0,0-13.2,13.8,41.51,41.51,0,0,0-4.8,20.2,40.93,40.93,0,0,0,4.8,20.1,35.69,35.69,0,0,0,13.2,13.7A36.84,36.84,0,0,0,1058.79,223Z" fill="#c90"/><path d="M147.5,0C66.17,0,0,66.17,0,147.5a146.63,146.63,0,0,0,20.44,74.86l8.64-15.45A131.77,131.77,0,0,1,15,147.5C15,74.44,74.44,15,147.5,15S280,74.44,280,147.5a131.77,131.77,0,0,1-14.08,59.41l8.64,15.45A146.63,146.63,0,0,0,295,147.5C295,66.17,228.83,0,147.5,0Z" fill="#c90"/><path d="M277.78,269.1l-15.94-28.51-7.94-14.21L181.09,96.14a38.49,38.49,0,0,0-67.18,0L41.1,226.38l-7.94,14.21L17.22,269.1a26.56,26.56,0,0,0,29.66,38.72A416.19,416.19,0,0,1,147.5,295.69a416.19,416.19,0,0,1,100.62,12.13,27.14,27.14,0,0,0,6.64.83,26.6,26.6,0,0,0,23-39.55Zm-14,20a11.31,11.31,0,0,1-12,4.2,414,414,0,0,0-48.77-9.1,444,444,0,0,0-111,0,414,414,0,0,0-48.77,9.1,11.56,11.56,0,0,1-12.93-16.85L43.81,252.3l7.62-13.64L127,103.46a23.47,23.47,0,0,1,41,0l75.58,135.2,7.62,13.64,13.49,24.12A11.24,11.24,0,0,1,263.78,289.07Z" fill="#c90"/><path d="M277.78,269.1l-15.94-28.51-7.94-14.21L181.09,96.14a38.49,38.49,0,0,0-67.18,0L41.1,226.38l-7.94,14.21L17.22,269.1a26.56,26.56,0,0,0,29.66,38.72A416.19,416.19,0,0,1,147.5,295.69a416.19,416.19,0,0,1,100.62,12.13,27.14,27.14,0,0,0,6.64.83,26.6,26.6,0,0,0,23-39.55Zm-14,20a11.31,11.31,0,0,1-12,4.2,414,414,0,0,0-48.77-9.1,444,444,0,0,0-111,0,414,414,0,0,0-48.77,9.1,11.56,11.56,0,0,1-12.93-16.85L43.81,252.3l7.62-13.64L127,103.46a23.47,23.47,0,0,1,41,0l75.58,135.2,7.62,13.64,13.49,24.12A11.24,11.24,0,0,1,263.78,289.07Z" fill="#c90"/><circle cx="147.5" cy="147.5" r="23" fill="#c90"/></svg>