<svg width="202" height="60" viewBox="0 0 202 60" fill="none" xmlns="http://www.w3.org/2000/svg">
    <path
        d="M23.7004 42.4434L23.6599 40.6769C23.6551 40.4827 23.5941 40.294 23.4842 40.1338C23.3743 39.9736 23.2203 39.8487 23.0409 39.7742C21.181 38.984 19.5887 37.6739 18.455 36.0012C17.3213 34.3284 16.6943 32.364 16.6494 30.3437C16.6045 28.3235 17.1435 26.3331 18.2017 24.6116C19.26 22.8901 20.7925 21.5105 22.6154 20.6384C22.7916 20.5559 22.9401 20.4242 23.0431 20.2591C23.1461 20.094 23.1991 19.9027 23.1956 19.7082L23.0556 13.3842C23.0495 13.0919 23.1203 12.803 23.261 12.5467C23.4016 12.2903 23.6071 12.0754 23.857 11.9234L36.3538 4.33024L30.028 0.861557C28.9502 0.270808 27.7358 -0.0257352 26.507 0.00175094C25.2782 0.0292371 24.0783 0.379785 23.028 1.01814L3.36905 12.9624C2.31837 13.5998 1.45402 14.5027 0.862917 15.5801C0.271811 16.6575 -0.0252243 17.8716 0.00167775 19.1003L0.517465 42.0953C0.545109 43.3235 0.895524 44.5229 1.5335 45.5728C2.17147 46.6227 3.07453 47.4862 4.15194 48.0766L10.3967 51.4992L22.8954 43.9061C23.146 43.7543 23.3524 43.5392 23.4937 43.2825C23.635 43.0258 23.7063 42.7364 23.7004 42.4434Z"
        fill="#191816" />
    <path
        d="M50.1953 11.9124L43.9487 8.49158L31.4518 16.0847C31.2009 16.236 30.9946 16.451 30.8539 16.708C30.7131 16.9649 30.6429 17.2545 30.6505 17.5474L30.6947 19.5737C30.7001 19.7673 30.7612 19.9552 30.8707 20.1149C30.9801 20.2747 31.1333 20.3995 31.3118 20.4745C33.1578 21.272 34.7359 22.5828 35.8586 24.2511C36.9813 25.9194 37.6013 27.875 37.645 29.8854C37.6886 31.8958 37.1541 33.8765 36.1048 35.5919C35.0556 37.3074 33.5359 38.6855 31.7263 39.5624C31.5529 39.6448 31.4071 39.7756 31.3065 39.939C31.2058 40.1025 31.1546 40.2915 31.1589 40.4834L31.2952 46.6158C31.3014 46.9082 31.2305 47.197 31.0899 47.4534C30.9493 47.7097 30.7438 47.9247 30.4939 48.0766L17.9971 55.6698L24.3265 59.1385C25.4044 59.7292 26.6187 60.0258 27.8475 59.9983C29.0763 59.9708 30.2762 59.6202 31.3266 58.9819L50.9837 47.0377C52.0344 46.3985 52.8981 45.4938 53.488 44.4147C54.0778 43.3355 54.373 42.12 54.3437 40.8905L53.8297 17.8955C53.8024 16.667 53.4522 15.4673 52.8142 14.417C52.1762 13.3667 51.2729 12.5029 50.1953 11.9124Z"
        fill="#EF7745" />
    <path
        d="M90.7848 11.0411H95.9188C96.8153 11.0411 97.2635 11.4341 97.2635 12.2201V39.3341C97.2635 42.4042 96.3775 44.772 94.6054 46.4372C92.8333 48.1025 90.3581 48.9376 87.1798 48.9425H80.4561C77.2374 48.9425 74.7524 48.1172 73.0011 46.4667C71.2499 44.8162 70.3731 42.4386 70.3706 39.3341V12.2772C70.3706 11.4519 70.8004 11.0399 71.6601 11.0411H76.8548C77.7145 11.0411 78.1443 11.4532 78.1443 12.2772V38.9877C78.1443 40.2465 78.4188 41.1406 78.9677 41.6699C79.5167 42.1992 80.4236 42.4644 81.6885 42.4656H85.9051C87.2093 42.4656 88.1365 42.2004 88.6867 41.6699C89.2368 41.1393 89.5119 40.2453 89.5119 38.9877V12.2772C89.5058 11.4519 89.9301 11.0399 90.7848 11.0411Z"
        fill="#191816" />
    <path
        d="M113.216 48.9425H108.021C107.161 48.9425 106.731 48.5299 106.731 47.7046V12.2772C106.731 11.4519 107.161 11.0399 108.021 11.0411H122.574C125.752 11.0411 128.237 11.8854 130.03 13.574C131.823 15.2626 132.719 17.6408 132.718 20.7085V25.3138C132.718 29.7533 130.905 32.7006 127.28 34.1559V34.3898L133.82 47.5351C134.188 48.4783 133.842 48.9499 132.781 48.9499H127.829C127.092 48.9499 126.565 48.8725 126.241 48.7159C125.917 48.5593 125.65 48.2241 125.445 47.712L119.333 34.9812H115.233C114.742 34.9812 114.496 35.1973 114.496 35.6296V47.712C114.497 48.5323 114.07 48.9425 113.216 48.9425ZM115.17 28.9593H121.161C122.462 28.9593 123.42 28.6947 124.033 28.1654C124.644 27.633 124.954 26.7801 124.954 25.5993V20.994C124.954 19.7758 124.647 18.8916 124.033 18.3414C123.418 17.7912 122.461 17.5161 121.161 17.5161H115.17C114.723 17.5161 114.498 17.7335 114.498 18.1646V28.2962C114.498 28.7383 114.722 28.9593 115.17 28.9593Z"
        fill="#191816" />
    <path
        d="M151.423 26.896H154.54C155.891 26.896 156.859 26.6307 157.443 26.1002C158.028 25.5697 158.323 24.6953 158.329 23.477V20.7139C158.329 19.4944 158.034 18.6194 157.443 18.0889C156.852 17.5584 155.885 17.2937 154.54 17.2949H151.605C150.301 17.2949 149.385 17.5596 148.855 18.0889C148.326 18.6182 148.061 19.4932 148.061 20.7139V22.1876C148.061 23.0128 147.631 23.4249 146.772 23.4236H141.577C140.717 23.4236 140.288 23.0116 140.288 22.1876V20.5941C140.288 17.524 141.164 15.1667 142.916 13.5223C144.669 11.8779 147.154 11.0526 150.373 11.0465H155.813C159.032 11.0465 161.517 11.8718 163.268 13.5223C165.019 15.1728 165.895 17.5301 165.897 20.5941V23.5415C165.897 26.8426 164.287 28.9843 161.068 29.9668C164.286 30.6349 165.895 32.7766 165.897 36.3921V39.4002C165.897 42.4643 165.02 44.8215 163.268 46.4721C161.515 48.1226 159.03 48.9479 155.813 48.9479H150.373C147.153 48.9479 144.667 48.1226 142.916 46.4721C141.165 44.8215 140.289 42.4643 140.288 39.4002V37.7423C140.288 36.8765 140.717 36.4467 141.577 36.4528H146.772C147.631 36.4528 148.061 36.8827 148.061 37.7423V39.275C148.061 40.5337 148.326 41.4179 148.855 41.9276C149.385 42.4372 150.301 42.6927 151.605 42.6939H154.54C155.891 42.6939 156.859 42.4286 157.443 41.8981C158.028 41.3676 158.323 40.4932 158.329 39.275V36.3865C158.329 35.1683 158.034 34.2939 157.443 33.7634C156.852 33.2328 155.885 32.9676 154.54 32.9676H151.423C150.563 32.9676 150.134 32.5549 150.134 31.7297V28.1928C150.134 27.3283 150.563 26.896 151.423 26.896Z"
        fill="#191816" />
    <path
        d="M174.943 47.7046V12.2772C174.943 11.4519 175.373 11.0399 176.232 11.0411H191.327C194.506 11.0411 196.982 11.8756 198.754 13.5446C200.526 15.2135 201.412 17.5812 201.412 20.6477V39.3341C201.412 42.4042 200.526 44.772 198.754 46.4372C196.982 48.1025 194.506 48.9376 191.327 48.9425H176.232C175.373 48.9425 174.943 48.5299 174.943 47.7046ZM183.376 42.4583H190.039C191.342 42.4583 192.268 42.193 192.819 41.6625C193.369 41.132 193.644 40.2379 193.644 38.9804V21.0014C193.644 19.7451 193.369 18.8511 192.819 18.3193C192.268 17.7875 191.342 17.5223 190.039 17.5235H183.376C182.928 17.5235 182.704 17.7409 182.704 18.1719V41.8099C182.704 42.2434 182.928 42.4595 183.376 42.4583Z"
        fill="#191816" />
</svg>