<svg width="202" height="60" viewBox="0 0 202 60" fill="none" xmlns="http://www.w3.org/2000/svg">
<path d="M23.7004 42.4434L23.6599 40.6768C23.6551 40.4826 23.5941 40.294 23.4842 40.1338C23.3743 39.9736 23.2203 39.8487 23.0409 39.7742C21.181 38.984 19.5887 37.6739 18.455 36.0011C17.3213 34.3284 16.6943 32.364 16.6494 30.3437C16.6045 28.3234 17.1435 26.3331 18.2017 24.6116C19.26 22.8901 20.7925 21.5105 22.6154 20.6384C22.7916 20.5559 22.9401 20.4242 23.0431 20.2591C23.1461 20.094 23.1991 19.9027 23.1956 19.7082L23.0556 13.3842C23.0495 13.0919 23.1203 12.803 23.261 12.5467C23.4016 12.2903 23.6071 12.0754 23.857 11.9234L36.3538 4.33024L30.028 0.861556C28.9502 0.270808 27.7358 -0.0257352 26.507 0.00175094C25.2782 0.0292371 24.0783 0.379785 23.028 1.01814L3.36905 12.9624C2.31837 13.5998 1.45402 14.5027 0.862917 15.5801C0.271811 16.6575 -0.0252243 17.8716 0.00167775 19.1003L0.517465 42.0953C0.545109 43.3235 0.895524 44.5229 1.5335 45.5728C2.17147 46.6227 3.07453 47.4862 4.15194 48.0766L10.3967 51.4992L22.8954 43.9061C23.146 43.7543 23.3524 43.5392 23.4937 43.2825C23.635 43.0258 23.7062 42.7364 23.7004 42.4434Z" fill="#EF7745"/>
<path d="M50.1953 11.9124L43.9487 8.49158L31.4518 16.0847C31.2009 16.236 30.9946 16.451 30.8539 16.708C30.7131 16.9649 30.6429 17.2545 30.6505 17.5474L30.6947 19.5737C30.7001 19.7673 30.7612 19.9552 30.8707 20.1149C30.9801 20.2747 31.1333 20.3995 31.3118 20.4745C33.1578 21.272 34.7359 22.5828 35.8586 24.2511C36.9813 25.9194 37.6013 27.875 37.645 29.8854C37.6886 31.8958 37.1541 33.8765 36.1048 35.5919C35.0556 37.3074 33.5359 38.6855 31.7263 39.5624C31.5529 39.6448 31.4071 39.7756 31.3065 39.939C31.2058 40.1025 31.1545 40.2915 31.1589 40.4834L31.2952 46.6158C31.3013 46.9082 31.2305 47.197 31.0899 47.4534C30.9493 47.7097 30.7438 47.9247 30.4939 48.0766L17.9971 55.6698L24.3265 59.1385C25.4044 59.7292 26.6187 60.0257 27.8475 59.9983C29.0763 59.9708 30.2762 59.6202 31.3266 58.9819L50.9837 47.0377C52.0344 46.3985 52.8981 45.4938 53.488 44.4147C54.0778 43.3355 54.373 42.12 54.3437 40.8905L53.8297 17.8955C53.8024 16.667 53.4521 15.4673 52.8142 14.417C52.1762 13.3667 51.2729 12.5029 50.1953 11.9124Z" fill="#EF7745"/>
<path d="M90.7843 11.041H95.9183C96.8148 11.041 97.263 11.4334 97.263 12.2181V39.3339C97.263 42.4041 96.377 44.7718 94.6049 46.4371C92.8328 48.1024 90.3576 48.9381 87.1793 48.9442H80.4557C77.2369 48.9442 74.7519 48.1183 73.0007 46.4666C71.2494 44.8148 70.3726 42.4373 70.3701 39.3339V12.2789C70.3701 11.4518 70.7975 11.041 71.6596 11.041H76.8543C77.7091 11.041 78.1438 11.4518 78.1438 12.2789V38.9895C78.1438 40.2495 78.4183 41.1435 78.9672 41.6716C79.5162 42.1996 80.4231 42.4649 81.688 42.4674H85.9046C87.2088 42.4674 88.136 42.2021 88.6862 41.6716C89.2364 41.141 89.5114 40.247 89.5114 38.9895V12.2789C89.5022 11.4592 89.9296 11.041 90.7843 11.041Z" fill="#191816"/>
<path d="M113.216 48.9442H108.021C107.164 48.9442 106.731 48.5297 106.731 47.7063V12.2789C106.731 11.4518 107.159 11.041 108.021 11.041H122.574C125.752 11.041 128.237 11.8859 130.03 13.5758C131.823 15.2656 132.719 17.6425 132.718 20.7066V25.3118C132.718 29.7525 130.905 32.6999 127.28 34.1539V34.3897L133.82 47.5332C134.188 48.4775 133.842 48.9497 132.781 48.9497H127.829C127.092 48.9497 126.565 48.8705 126.241 48.7121C125.917 48.5537 125.65 48.2221 125.445 47.7118L119.333 34.9792H115.233C114.742 34.9792 114.496 35.1953 114.496 35.6276V47.7118C114.498 48.5297 114.07 48.9442 113.216 48.9442ZM115.17 28.9592H121.161C122.462 28.9592 123.42 28.6939 124.033 28.1634C124.645 27.6329 124.952 26.7781 124.954 25.5992V20.9939C124.954 19.7781 124.647 18.8939 124.033 18.3413C123.418 17.7886 122.461 17.5142 121.161 17.5179H115.17C114.722 17.5179 114.498 17.734 114.498 18.1663V28.2979C114.498 28.7387 114.722 28.9592 115.17 28.9592Z" fill="#191816"/>
<path d="M151.423 26.8961H154.54C155.891 26.8961 156.859 26.6315 157.443 26.1022C158.028 25.5729 158.323 24.6979 158.329 23.4772V20.714C158.329 19.4982 158.034 18.6238 157.443 18.0908C156.852 17.5579 155.885 17.2932 154.54 17.2969H151.605C150.301 17.2969 149.385 17.5615 148.855 18.0908C148.326 18.6201 148.061 19.4945 148.061 20.714V22.1877C148.061 23.0154 147.631 23.4286 146.772 23.4274H141.577C140.717 23.4274 140.288 23.0142 140.288 22.1877V20.5979C140.288 17.5278 141.164 15.1699 142.916 13.5243C144.669 11.8786 147.154 11.0534 150.373 11.0485H155.813C159.032 11.0485 161.517 11.8737 163.268 13.5243C165.019 15.1748 165.895 17.5327 165.897 20.5979V23.5453C165.897 26.8464 164.287 28.9881 161.068 29.9706C164.286 30.6374 165.895 32.7786 165.897 36.394V39.4022C165.897 42.4662 165.02 44.8235 163.268 46.474C161.515 48.1245 159.03 48.9504 155.813 48.9517H150.373C147.153 48.9517 144.667 48.1258 142.916 46.474C141.165 44.8223 140.289 42.465 140.288 39.4022V37.7443C140.288 36.8785 140.717 36.4487 141.577 36.4548H146.772C147.631 36.4548 148.061 36.8846 148.061 37.7443V39.2751C148.061 40.5338 148.326 41.4174 148.855 41.9259C149.385 42.4343 150.301 42.6903 151.605 42.694H154.54C155.891 42.694 156.859 42.4281 157.443 41.8964C158.028 41.3646 158.323 40.4909 158.329 39.2751V36.3866C158.329 35.1684 158.034 34.2946 157.443 33.7653C156.852 33.236 155.885 32.9708 154.54 32.9695H151.423C150.563 32.9695 150.134 32.5563 150.134 31.7298V28.1948C150.134 27.329 150.563 26.8961 151.423 26.8961Z" fill="#191816"/>
<path d="M174.943 47.7063V12.2789C174.943 11.4518 175.37 11.041 176.232 11.041H191.327C194.506 11.041 196.982 11.8755 198.754 13.5444C200.526 15.2134 201.412 17.5811 201.412 20.6476V39.3339C201.412 42.4041 200.526 44.7718 198.754 46.4371C196.982 48.1024 194.506 48.9381 191.327 48.9442H176.232C175.37 48.9442 174.943 48.5297 174.943 47.7063ZM183.376 42.4581H190.039C191.342 42.4581 192.268 42.1929 192.819 41.6624C193.369 41.1318 193.644 40.2378 193.644 38.9802V21.0013C193.644 19.745 193.369 18.8509 192.819 18.3192C192.268 17.7874 191.342 17.5228 190.039 17.5252H183.376C182.929 17.5252 182.705 17.7414 182.704 18.1737V41.8116C182.704 42.2426 182.928 42.4581 183.376 42.4581Z" fill="#191816"/>
</svg>
