<svg width="32" height="35" viewBox="0 0 36 36" fill="none" xmlns="http://www.w3.org/2000/svg">
<path d="M13.8247 24.7633L13.8014 23.7316C13.7986 23.6182 13.7628 23.5081 13.6985 23.4146C13.6343 23.3212 13.5442 23.2484 13.4393 23.2052C12.4021 22.7643 11.5065 22.0459 10.8513 21.1289C10.196 20.2119 9.80638 19.1319 9.72532 18.0078C9.64427 16.8836 9.8749 15.7589 10.3918 14.7574C10.9088 13.7559 11.692 12.9164 12.6553 12.3313C12.8307 12.2247 13.0095 12.1277 13.1917 12.0403C13.2939 11.9919 13.3799 11.915 13.4394 11.8189C13.4989 11.7227 13.5294 11.6114 13.5271 11.4983L13.446 7.8089C13.4421 7.63831 13.4832 7.4697 13.5651 7.31999C13.6469 7.17028 13.7667 7.04473 13.9125 6.95595L21.2036 2.52576L17.5141 0.502244C16.8855 0.157724 16.1772 -0.0151417 15.4605 0.00104021C14.7438 0.0172222 14.044 0.221881 13.4316 0.594424L1.96349 7.56679C1.35062 7.93883 0.846566 8.46576 0.502061 9.09452C0.157557 9.72329 -0.0152426 10.4317 0.00105485 11.1485L0.300918 24.559C0.316817 25.2757 0.521118 25.9756 0.893284 26.5884C1.26545 27.2011 1.79237 27.7051 2.42106 28.0496L6.06494 30.0487L13.356 25.6174C13.5026 25.5291 13.6231 25.4035 13.7054 25.2535C13.7878 25.1035 13.8289 24.9344 13.8247 24.7633Z" fill="#191816"/>
<path d="M29.283 6.95038L25.6392 4.95129L18.3469 9.3826C18.2011 9.47106 18.0811 9.59635 17.999 9.74588C17.917 9.8954 17.8757 10.0639 17.8794 10.2344L17.906 11.415C17.9094 11.528 17.9451 11.6376 18.0088 11.7309C18.0726 11.8242 18.1618 11.8973 18.2659 11.9414C19.3427 12.4068 20.2633 13.1715 20.9183 14.1448C21.5732 15.1181 21.9349 16.2589 21.9604 17.4317C21.9859 18.6046 21.6741 19.7601 21.0621 20.7609C20.4501 21.7617 19.5636 22.5657 18.508 23.0774C18.4071 23.1253 18.3221 23.201 18.2631 23.2957C18.204 23.3904 18.1734 23.5 18.1748 23.6116L18.2548 27.1889C18.2584 27.3596 18.2171 27.5282 18.1351 27.6779C18.053 27.8276 17.933 27.9531 17.7872 28.0418L10.4961 32.472L14.1933 34.4978C14.8221 34.8423 15.5306 35.0151 16.2475 34.9989C16.9643 34.9828 17.6643 34.7781 18.277 34.4056L29.7417 27.4377C30.3543 27.0653 30.8581 26.5383 31.2025 25.9096C31.547 25.2809 31.72 24.5727 31.7042 23.856L31.4076 10.441C31.3914 9.7238 31.1865 9.02354 30.8135 8.41074C30.4405 7.79795 29.9126 7.29425 29.283 6.95038Z" fill="#EF7745"/>
</svg>
