<svg width="168" height="51" viewBox="0 0 168 51" fill="none" xmlns="http://www.w3.org/2000/svg">
<path d="M19.7503 35.8506L19.7165 34.3882C19.7126 34.2274 19.6617 34.0713 19.5702 33.9386C19.4786 33.806 19.3503 33.7026 19.2008 33.641C17.6509 32.9869 16.3239 31.9024 15.3792 30.5176C14.4344 29.1329 13.9119 27.5068 13.8745 25.8344C13.8371 24.162 14.2862 22.5144 15.1681 21.0894C16.05 19.6643 17.3271 18.5223 18.8462 17.8003C18.993 17.7321 19.1168 17.623 19.2026 17.4864C19.2884 17.3497 19.3326 17.1913 19.3297 17.0303L19.213 11.7953C19.2079 11.5533 19.267 11.3142 19.3841 11.102C19.5013 10.8897 19.6726 10.7118 19.8808 10.586L30.2949 4.3004L25.0234 1.42902C24.1252 0.939996 23.1132 0.694517 22.0892 0.71727C21.0652 0.740023 20.0653 1.03021 19.19 1.55864L2.80754 11.4461C1.93197 11.9738 1.21169 12.7211 0.719097 13.6131C0.226509 14.505 -0.0210203 15.51 0.00139812 16.5271L0.431221 35.5624C0.454258 36.5791 0.74627 37.5719 1.27791 38.4411C1.80956 39.3102 2.56211 40.025 3.45995 40.5137L8.66391 43.347L19.0795 37.0614C19.2884 36.9357 19.4603 36.7577 19.5781 36.5452C19.6958 36.3326 19.7552 36.0931 19.7503 35.8506Z" fill="#FEEEEB"/>
<path d="M41.8299 10.5769L36.6244 7.74512L26.2103 14.0307C26.0013 14.156 25.8293 14.334 25.712 14.5467C25.5947 14.7593 25.5363 14.9991 25.5426 15.2415L25.5794 16.9189C25.5839 17.0791 25.6349 17.2347 25.7261 17.3669C25.8173 17.4992 25.9449 17.6025 26.0937 17.6646C27.632 18.3248 28.9471 19.4099 29.8827 20.7909C30.8182 22.1719 31.3349 23.7908 31.3713 25.455C31.4077 27.1192 30.9622 28.7588 30.0879 30.1788C29.2135 31.5989 27.9471 32.7397 26.4391 33.4656C26.2946 33.5338 26.1731 33.6421 26.0892 33.7774C26.0053 33.9127 25.9626 34.0692 25.9663 34.228L26.0799 39.3044C26.0849 39.5464 26.0259 39.7855 25.9088 39.9978C25.7916 40.21 25.6203 40.3879 25.4121 40.5137L14.998 46.7993L20.2726 49.6707C21.1708 50.1597 22.1828 50.4052 23.2068 50.3825C24.2308 50.3597 25.2307 50.0695 26.106 49.5411L42.4869 39.6536C43.3625 39.1245 44.0823 38.3756 44.5738 37.4823C45.0654 36.589 45.3113 35.5828 45.2869 34.5651L44.8586 15.5297C44.8358 14.5127 44.544 13.5196 44.0123 12.6502C43.4806 11.7808 42.7279 11.0657 41.8299 10.5769Z" fill="#FEEEEB"/>
<path d="M75.6525 9.85547H79.9308C80.6779 9.85547 81.0514 10.1808 81.0514 10.8314V33.2764C81.0514 35.8179 80.313 37.7779 78.8363 39.1564C77.3595 40.5349 75.2969 41.2262 72.6483 41.2303H67.0452C64.3629 41.2303 62.2921 40.5471 60.8327 39.1808C59.3734 37.8145 58.6427 35.8464 58.6406 33.2764V10.8787C58.6406 10.1955 58.9988 9.85445 59.7152 9.85547H64.0441C64.7605 9.85547 65.1187 10.1965 65.1187 10.8787V32.9897C65.1187 34.0317 65.3474 34.7718 65.8049 35.21C66.2623 35.6481 67.0181 35.8677 68.0722 35.8687H71.586C72.6729 35.8687 73.4455 35.6492 73.904 35.21C74.3625 34.7708 74.5917 34.0307 74.5917 32.9897V10.8787C74.5866 10.1955 74.9402 9.85445 75.6525 9.85547Z" fill="#FEEEEB"/>
<path d="M94.3449 41.2303H90.016C89.2996 41.2303 88.9414 40.8887 88.9414 40.2056V10.8787C88.9414 10.1955 89.2996 9.85445 90.016 9.85547H102.143C104.792 9.85547 106.863 10.5544 108.357 11.9522C109.851 13.35 110.598 15.3187 110.597 17.8581V21.6704C110.597 25.3454 109.086 27.7852 106.065 28.9899V29.1836L111.515 40.0653C111.822 40.846 111.533 41.2364 110.649 41.2364H106.523C105.909 41.2364 105.47 41.1723 105.2 41.0427C104.929 40.9131 104.707 40.6356 104.536 40.2116L99.4429 29.6731H96.0258C95.6165 29.6731 95.4118 29.852 95.4118 30.2098V40.2116C95.4128 40.8907 95.0572 41.2303 94.3449 41.2303ZM95.9736 24.6882H100.966C102.051 24.6882 102.848 24.4691 103.359 24.0309C103.869 23.5902 104.127 22.8842 104.127 21.9068V18.0945C104.127 17.086 103.871 16.3541 103.359 15.8986C102.847 15.4432 102.05 15.2155 100.966 15.2155H95.9736C95.6006 15.2155 95.4133 15.3954 95.4133 15.7523V24.1392C95.4133 24.5052 95.6001 24.6882 95.9736 24.6882Z" fill="#FEEEEB"/>
<path d="M126.186 22.9806H128.783C129.909 22.9806 130.715 22.761 131.203 22.3218C131.69 21.8827 131.936 21.1588 131.941 20.1504V17.863C131.941 16.8535 131.695 16.1292 131.203 15.69C130.71 15.2509 129.904 15.0318 128.783 15.0328H126.338C125.251 15.0328 124.487 15.2519 124.046 15.69C123.605 16.1282 123.384 16.8525 123.384 17.863V19.0829C123.384 19.7661 123.026 20.1072 122.31 20.1062H117.981C117.264 20.1062 116.906 19.7651 116.906 19.0829V17.7639C116.906 15.2224 117.636 13.271 119.097 11.9098C120.557 10.5486 122.629 9.86543 125.311 9.86035H129.844C132.526 9.86035 134.597 10.5435 136.056 11.9098C137.516 13.2761 138.246 15.2275 138.247 17.7639V20.2037C138.247 22.9364 136.906 24.7093 134.224 25.5226C136.905 26.0756 138.246 27.8486 138.247 30.8414V33.3316C138.247 35.868 137.517 37.8194 136.056 39.1857C134.596 40.552 132.525 41.2352 129.844 41.2352H125.311C122.628 41.2352 120.556 40.552 119.097 39.1857C117.637 37.8194 116.907 35.868 116.906 33.3316V31.9592C116.906 31.2425 117.264 30.8867 117.981 30.8918H122.31C123.026 30.8918 123.384 31.2476 123.384 31.9592V33.2279C123.384 34.2699 123.605 35.0019 124.046 35.4238C124.487 35.8457 125.251 36.0571 126.338 36.0581H128.783C129.909 36.0581 130.715 35.8385 131.203 35.3994C131.69 34.9602 131.936 34.2364 131.941 33.2279V30.8369C131.941 29.8284 131.695 29.1046 131.203 28.6654C130.71 28.2262 129.904 28.0067 128.783 28.0067H126.186C125.469 28.0067 125.111 27.6651 125.111 26.9819V24.0541C125.111 23.3384 125.469 22.9806 126.186 22.9806Z" fill="#FEEEEB"/>
<path d="M145.785 40.2056V10.8787C145.785 10.1955 146.143 9.85445 146.86 9.85547H159.438C162.088 9.85547 164.151 10.5463 165.628 11.9278C167.104 13.3094 167.843 15.2694 167.843 17.8078V33.2764C167.843 35.8179 167.104 37.7779 165.628 39.1564C164.151 40.5349 162.088 41.2262 159.438 41.2303H146.86C146.143 41.2303 145.785 40.8887 145.785 40.2056ZM152.813 35.8626H158.365C159.451 35.8626 160.223 35.6431 160.682 35.2039C161.14 34.7647 161.369 34.0246 161.369 32.9836V18.1006C161.369 17.0606 161.14 16.3205 160.682 15.8803C160.223 15.4402 159.451 15.2206 158.365 15.2216H152.813C152.44 15.2216 152.252 15.4015 152.252 15.7584V35.3259C152.252 35.6847 152.439 35.8637 152.813 35.8626Z" fill="#FEEEEB"/>
</svg>
