<svg width="33" height="36" viewBox="0 0 36 36" fill="none" xmlns="http://www.w3.org/2000/svg">
<path d="M14.2197 25.4709L14.1957 24.4096C14.1928 24.293 14.156 24.1797 14.0899 24.0836C14.0238 23.9875 13.9312 23.9126 13.8233 23.8682C12.7564 23.4147 11.8353 22.6758 11.1613 21.7326C10.4873 20.7894 10.0866 19.6785 10.0032 18.5223C9.91982 17.366 10.157 16.2092 10.6887 15.179C11.2204 14.1489 12.026 13.2854 13.0168 12.6836C13.1973 12.5739 13.3812 12.4742 13.5686 12.3843C13.6737 12.3345 13.7622 12.2554 13.8234 12.1565C13.8846 12.0576 13.9159 11.9431 13.9136 11.8268L13.8302 8.03201C13.8262 7.85654 13.8684 7.68312 13.9526 7.52913C14.0368 7.37514 14.1601 7.24601 14.31 7.1547L21.8094 2.59793L18.0145 0.516594C17.3679 0.162231 16.6394 -0.0155744 15.9022 0.00106993C15.1651 0.0177142 14.4453 0.228221 13.8153 0.611408L2.01959 7.78298C1.38921 8.16566 0.870753 8.70764 0.516406 9.35437C0.162058 10.0011 -0.0156781 10.7298 0.00108499 11.467L0.309516 25.2607C0.325869 25.9979 0.536007 26.7178 0.918807 27.3481C1.30161 27.9783 1.84358 28.4967 2.49023 28.851L6.23823 30.9072L13.7376 26.3493C13.8884 26.2585 14.0124 26.1293 14.097 25.975C14.1817 25.8208 14.224 25.6468 14.2197 25.4709Z" fill="#EF7745"/>
<path d="M30.1196 7.14897L26.3716 5.09277L18.8711 9.65069C18.721 9.74168 18.5976 9.87054 18.5132 10.0243C18.4288 10.1781 18.3863 10.3515 18.3901 10.5269L18.4175 11.7412C18.421 11.8574 18.4577 11.9701 18.5233 12.0661C18.5889 12.1621 18.6806 12.2372 18.7877 12.2826C19.8953 12.7613 20.8422 13.5479 21.5158 14.5489C22.1895 15.55 22.5615 16.7235 22.5877 17.9298C22.614 19.1361 22.2933 20.3246 21.6638 21.354C21.0343 22.3835 20.1225 23.2105 19.0367 23.7368C18.933 23.786 18.8456 23.8639 18.7848 23.9613C18.7241 24.0587 18.6925 24.1715 18.694 24.2863L18.7762 27.9657C18.78 28.1413 18.7375 28.3147 18.6531 28.4687C18.5687 28.6227 18.4453 28.7518 18.2953 28.843L10.7959 33.3998L14.5987 35.4834C15.2456 35.8378 15.9743 36.0156 16.7116 35.9989C17.449 35.9823 18.1689 35.7718 18.7991 35.3886L30.5914 28.2216C31.2215 27.8386 31.7397 27.2965 32.094 26.6499C32.4483 26.0032 32.6262 25.2748 32.6099 24.5376L32.3049 10.7393C32.2882 10.0016 32.0774 9.28137 31.6938 8.65107C31.3101 8.02076 30.7672 7.50267 30.1196 7.14897Z" fill="#EF7745"/>
</svg>
